<svg width="89" height="87" viewBox="0 0 89 87" fill="none" xmlns="http://www.w3.org/2000/svg">
<rect width="89" height="87" rx="43.5" fill="#5D7845"/>
<g clip-path="url(#clip0_95_625)">
<path d="M17.4621 34.0779L17.3184 35.8672L18.7346 36.4389C18.8992 36.4925 18.9804 36.6081 18.9804 36.7835C18.9804 36.8661 18.9617 36.961 18.92 37.0683L16.4749 44.0892L13.7444 36.377L15.2023 36.0096L14.9962 34.0779H9.08123L9 35.5019L9.67688 36.4574L14.4401 47.643L17.5642 47.8555L22.042 36.9466L22.9459 35.8074L22.8209 34.0779H17.4621Z" fill="white"/>
<path d="M27.9154 38.3313C27.805 37.8009 27.6883 37.3614 27.5655 37.0085C26.7719 37.0353 25.5452 37.219 23.8895 37.5574C23.7249 37.5719 23.5271 37.6049 23.2938 37.6585L23.2334 39.1857L24.1352 39.6728C24.3143 39.7821 24.4247 39.8812 24.4643 39.9679C24.5059 40.0566 24.5268 40.2506 24.5268 40.5478V45.4946L23.273 45.8599L23.3771 47.7936H29.5378L29.619 46.349L28.3881 45.6968C28.209 45.5895 28.1007 45.4863 28.0591 45.3914C28.0174 45.2965 27.9966 45.1066 27.9966 44.8218V40.2031C28.6131 40.135 29.2087 40.1 29.7836 40.1C30.0168 40.1 30.3792 40.1144 30.8728 40.1412C30.9541 39.7759 31.0228 39.291 31.0769 38.6863C31.1332 38.0837 31.1665 37.5223 31.1811 37.0085H30.0106C29.4357 37.252 28.736 37.6936 27.9154 38.3313Z" fill="white"/>
<path d="M41.5011 45.3522C41.4532 45.2573 41.4282 45.086 41.4282 44.8424V40.5891C41.4282 39.2868 41.1137 38.354 40.4847 37.7906C39.8537 37.2293 38.8144 36.9465 37.3627 36.9465C36.5692 36.9465 35.7153 37.0208 34.8051 37.1715C33.895 37.3201 33.0556 37.5223 32.2892 37.7803C32.385 38.9484 32.5495 40.0731 32.7828 41.1587L34.3032 41.2618L35.1446 39.6129C35.3779 39.5716 35.7736 39.551 36.3359 39.551C36.8837 39.551 37.2898 39.6088 37.5585 39.7243C37.8251 39.8399 38.0104 40.0504 38.1125 40.3559C38.2145 40.6613 38.2666 41.1318 38.2666 41.7695C36.1839 41.8521 34.601 42.1967 33.5118 42.8076C32.4225 43.4185 31.8789 44.2605 31.8789 45.3316C31.8789 46.1323 32.1601 46.7865 32.7203 47.2942C33.2827 47.8039 34.0283 48.0578 34.9593 48.0578C35.5341 48.0578 36.1402 47.9567 36.7775 47.7523C37.4148 47.5501 38 47.2777 38.5332 46.9392C38.5749 47.1291 38.6228 47.3293 38.6769 47.5398C38.7311 47.7503 38.7727 47.8947 38.7998 47.9773C39.7183 47.936 40.97 47.7317 42.5591 47.3664L42.6403 46.1034L41.8197 45.637C41.6552 45.5421 41.549 45.4471 41.5011 45.3522ZM36.3359 45.7588C35.9381 45.7588 35.6278 45.6473 35.4008 45.4224C35.1759 45.1995 35.0613 44.8837 35.0613 44.4772C35.0613 44.3265 35.0821 44.1635 35.1238 43.9881C35.4112 43.8931 35.8007 43.8085 36.2943 43.7342C36.7879 43.6599 37.219 43.6207 37.5876 43.6207C37.698 43.6207 37.9167 43.6352 38.2458 43.662L38.327 45.2098C37.5481 45.5751 36.8837 45.7588 36.3359 45.7588Z" fill="white"/>
<path d="M48.309 45.3914C48.2674 45.2965 48.2465 45.1066 48.2465 44.8218V38.3107C48.2049 38.0259 48.0966 37.5904 47.9175 37.0085C47.3968 37.0208 46.8261 37.0786 46.2034 37.1797C45.5807 37.2829 44.6997 37.4418 43.5646 37.6585L43.4605 39.1857L44.3644 39.6728C44.556 39.7821 44.6768 39.8812 44.7247 39.9679C44.7726 40.0566 44.7955 40.2506 44.7955 40.5478V45.4946L43.3584 45.9218L43.4209 47.7936H49.5816L49.6628 46.2664L48.6568 45.6968C48.4652 45.5895 48.3486 45.4863 48.309 45.3914Z" fill="white"/>
<path d="M68.2301 45.3914C68.1885 45.2965 68.1677 45.1066 68.1677 44.8218V40.814C68.1677 39.5118 67.9011 38.5418 67.3679 37.9041C66.8326 37.2664 66.0037 36.9465 64.8811 36.9465C64.3209 36.9465 63.7273 37.0311 63.1046 37.2004C62.4818 37.3717 61.78 37.6461 61.001 38.0259C60.7677 37.6998 60.4179 37.4377 59.9534 37.2416C59.4869 37.0456 58.987 36.9465 58.4538 36.9465C58.0144 36.9465 57.5333 37.0188 57.0064 37.1612C56.4773 37.3036 55.8463 37.543 55.1069 37.8835C55.0382 37.5842 54.9486 37.2932 54.8382 37.0084C54.0301 37.0353 52.7847 37.2189 51.1018 37.5574L50.5457 37.6585L50.4854 39.1857L51.3893 39.6727C51.5663 39.7821 51.6767 39.8812 51.7162 39.9679C51.7579 40.0566 51.7787 40.2506 51.7787 40.5478V45.4946L50.5062 45.8599L50.6082 47.7936H56.5232L56.6044 46.2664L55.5984 45.6968C55.4214 45.5895 55.311 45.4863 55.2694 45.3914C55.2298 45.2965 55.209 45.1066 55.209 44.8218V39.8564C55.8921 39.7347 56.4753 39.6727 56.9543 39.6727C57.3917 39.6727 57.7061 39.7409 57.8998 39.8771C58.0915 40.0133 58.2039 40.2073 58.2372 40.457C58.2727 40.7088 58.2893 41.1318 58.2893 41.7282V45.5751L57.3042 45.8599L57.4062 47.7936H63.0338L63.115 46.2664L62.109 45.6968C61.9028 45.5895 61.78 45.4863 61.7404 45.3914C61.6987 45.2965 61.6779 45.1066 61.6779 44.8218V40.814C61.6779 40.393 61.6633 40.0731 61.6362 39.8564C62.4714 39.7347 63.0671 39.6727 63.4232 39.6727C63.8752 39.6727 64.198 39.745 64.3896 39.8874C64.5812 40.0298 64.6937 40.2258 64.727 40.4776C64.7624 40.7294 64.7791 41.1463 64.7791 41.7282V45.5751L63.7939 45.8599L63.896 47.7936H69.4819L69.5652 46.2664L68.578 45.6968C68.3863 45.5895 68.2697 45.4863 68.2301 45.3914Z" fill="white"/>
<path d="M78.8172 38.4118C77.9883 37.4356 76.8011 36.9465 75.2537 36.9465C74.2123 36.9465 73.3022 37.1715 72.5212 37.6173C71.7422 38.0651 71.1382 38.7131 70.7154 39.5613C70.2906 40.4095 70.0781 41.4228 70.0781 42.6033C70.0781 44.2997 70.5134 45.6287 71.3819 46.5925C72.2525 47.5563 73.4875 48.0371 75.0892 48.0371C75.9118 48.0371 76.7262 47.9154 77.5343 47.6719C78.3403 47.4263 78.9984 47.1146 79.5045 46.7349L79.0317 44.7207C78.4715 44.925 77.9175 45.0839 77.3697 45.1995C76.822 45.315 76.3492 45.3728 75.9514 45.3728C75.3766 45.3728 74.9142 45.2387 74.5664 44.9745C74.2165 44.7104 73.9457 44.2935 73.7541 43.7239L79.9981 42.5847C80.0398 40.7789 79.6461 39.388 78.8172 38.4118ZM73.55 41.7097C73.5209 40.9358 73.6521 40.2155 73.9395 39.551C74.2956 39.4437 74.6705 39.388 75.0683 39.388C75.5474 39.388 75.9202 39.5076 76.1888 39.745C76.4554 39.9823 76.6012 40.3579 76.6304 40.8739L73.55 41.7097Z" fill="white"/>
<path d="M44.1417 33.7828C45.1476 34.1378 45.5059 34.5134 45.8037 35.5308C45.8578 35.7145 46.0245 35.8424 46.2182 35.8486C46.2223 35.8486 46.2265 35.8486 46.2327 35.8486C46.4202 35.8486 46.5889 35.7331 46.6514 35.5556C47.0096 34.5567 47.3886 34.2038 48.4154 33.9087C48.6029 33.8551 48.732 33.69 48.7362 33.498C48.7424 33.304 48.6237 33.1327 48.4404 33.0667C47.4345 32.7138 47.0762 32.3361 46.7784 31.3208C46.7243 31.135 46.5576 31.0071 46.3639 31.0009C46.1703 30.9926 45.9953 31.1144 45.9307 31.2939C45.5725 32.2928 45.1935 32.6457 44.1667 32.9408C43.9813 32.9945 43.8522 33.1596 43.8459 33.3515C43.8397 33.5455 43.9584 33.7168 44.1417 33.7828Z" fill="white"/>
<path d="M19.178 55.9991C18.9573 55.9991 18.7677 55.9682 18.6074 55.9042C18.447 55.8402 18.3158 55.7556 18.2117 55.6524C18.1096 55.5471 18.0325 55.4357 17.9805 55.3139L18.2825 55.1406C18.3179 55.2417 18.3741 55.3325 18.4512 55.4151C18.5303 55.4976 18.6303 55.5637 18.7532 55.6132C18.874 55.6627 19.0197 55.6875 19.1884 55.6875C19.3634 55.6875 19.5113 55.6586 19.6342 55.6049C19.7549 55.5492 19.8487 55.4729 19.9112 55.3738C19.9736 55.2747 20.0049 55.1592 20.0049 55.0271C20.0049 54.8826 19.9695 54.7691 19.8987 54.6886C19.8299 54.6102 19.7362 54.5524 19.6175 54.5194C19.4988 54.4864 19.3676 54.4678 19.2218 54.4637C19.1135 54.4575 19.0364 54.4554 18.9906 54.4534C18.9427 54.4534 18.9135 54.4513 18.8969 54.4513C18.8823 54.4513 18.8677 54.4513 18.8552 54.4513V54.1355C18.8656 54.1355 18.8927 54.1355 18.9385 54.1355C18.9823 54.1355 19.0302 54.1355 19.0822 54.1355C19.1322 54.1355 19.1718 54.1335 19.203 54.1314C19.4155 54.1211 19.5842 54.0654 19.707 53.9663C19.8299 53.8652 19.8903 53.729 19.8903 53.5577C19.8903 53.374 19.8258 53.2337 19.6966 53.1326C19.5675 53.0314 19.4009 52.9819 19.1968 52.9819C19.0031 52.9819 18.8406 53.0273 18.7094 53.1181C18.5761 53.2089 18.4678 53.3307 18.3845 53.4834L18.1158 53.2853C18.2179 53.1057 18.3616 52.9571 18.547 52.8416C18.7302 52.726 18.951 52.6682 19.2051 52.6682C19.3405 52.6682 19.4717 52.6868 19.5967 52.7239C19.7216 52.7611 19.832 52.8147 19.9278 52.889C20.0236 52.9613 20.1007 53.0521 20.1569 53.1635C20.2131 53.2729 20.2402 53.4029 20.2402 53.5494C20.2402 53.7228 20.2027 53.8734 20.1257 54.0035C20.0486 54.1314 19.9486 54.2284 19.8278 54.2945C19.9924 54.3419 20.1215 54.4286 20.2152 54.5524C20.309 54.6742 20.3548 54.8352 20.3548 55.0333C20.3548 55.2293 20.3069 55.3986 20.209 55.5451C20.1111 55.6895 19.9757 55.801 19.7987 55.8815C19.6217 55.9599 19.4134 55.9991 19.178 55.9991Z" fill="white"/>
<path d="M20.8174 55.9331V53.535H21.1465V54.5751H22.5106V53.535H22.8397V55.9331H22.5106V54.8888H21.1465V55.9331H20.8174Z" fill="white"/>
<path d="M24.1598 55.9991C23.9787 55.9991 23.8245 55.9682 23.7016 55.9021C23.5788 55.8361 23.4871 55.7494 23.4246 55.6421C23.3642 55.5348 23.333 55.4171 23.333 55.2892C23.333 55.1592 23.3601 55.0477 23.4122 54.9549C23.4663 54.862 23.5392 54.7856 23.6308 54.7278C23.7225 54.668 23.8287 54.6226 23.9495 54.5916C24.0724 54.5627 24.2078 54.5359 24.3556 54.5132C24.5056 54.4905 24.6514 54.4699 24.793 54.4534C24.9367 54.4369 25.0617 54.4183 25.1679 54.4038L25.0513 54.474C25.0575 54.2367 25.0096 54.0612 24.9138 53.9477C24.8159 53.8342 24.6472 53.7765 24.4077 53.7765C24.2411 53.7765 24.1015 53.8136 23.987 53.8879C23.8724 53.9622 23.7912 54.0778 23.7454 54.2387L23.4246 54.1459C23.4809 53.9312 23.5913 53.7641 23.76 53.6464C23.9266 53.5267 24.1432 53.4669 24.4119 53.4669C24.6326 53.4669 24.8201 53.5082 24.9742 53.5907C25.1304 53.6733 25.2387 53.793 25.3033 53.9477C25.3324 54.0179 25.3532 54.0943 25.3616 54.1809C25.3699 54.2676 25.3741 54.3543 25.3741 54.443V55.9331H25.0825V55.3305L25.1658 55.3676C25.0846 55.5719 24.9575 55.7288 24.7826 55.8381C24.6097 55.9455 24.4014 55.9991 24.1598 55.9991ZM24.1994 55.7184C24.3515 55.7184 24.4868 55.6895 24.6014 55.6359C24.7159 55.5802 24.8097 55.5059 24.8805 55.4109C24.9492 55.3139 24.995 55.2066 25.0158 55.0869C25.0346 55.0106 25.045 54.926 25.045 54.8331C25.0471 54.7402 25.0471 54.6701 25.0471 54.6247L25.1741 54.6886C25.0617 54.7051 24.9409 54.7196 24.8097 54.734C24.6784 54.7485 24.5493 54.765 24.4244 54.7856C24.2973 54.8042 24.1828 54.8269 24.0828 54.8537C24.0141 54.8723 23.9474 54.8991 23.8828 54.9342C23.8183 54.9693 23.7662 55.0168 23.7246 55.0746C23.6829 55.1323 23.6621 55.2025 23.6621 55.2892C23.6621 55.3593 23.6808 55.4254 23.7162 55.4914C23.7496 55.5554 23.8079 55.6111 23.8849 55.6524C23.9641 55.6957 24.0682 55.7184 24.1994 55.7184Z" fill="white"/>
<path d="M25.9551 55.9331L25.9572 53.535H26.2904V54.6886L27.3692 53.535H27.8087L26.6757 54.734L27.9566 55.9331H27.4775L26.2904 54.7774V55.9331H25.9551Z" fill="white"/>
<path d="M31.0017 53.535V55.9331H30.681V54.0654L29.3543 55.9331H29.0752V53.535H29.3959V55.3862L30.7247 53.535H31.0017Z" fill="white"/>
<path d="M32.6324 55.9991C32.3887 55.9991 32.1825 55.9455 32.0138 55.8381C31.8451 55.7288 31.716 55.5802 31.6285 55.3903C31.5411 55.2004 31.4973 54.9817 31.4932 54.734C31.4973 54.4823 31.5431 54.2614 31.6327 54.0716C31.7223 53.8796 31.8514 53.7331 32.0201 53.6258C32.1888 53.5205 32.395 53.4669 32.6345 53.4669C32.8803 53.4669 33.0927 53.5267 33.2739 53.6464C33.4572 53.7641 33.5801 53.9271 33.6488 54.1314L33.326 54.2346C33.2676 54.0901 33.1781 53.9787 33.0552 53.9003C32.9323 53.8198 32.7907 53.7806 32.6324 53.7806C32.4554 53.7806 32.3075 53.8219 32.1909 53.9023C32.0742 53.9828 31.9868 54.0943 31.9305 54.2387C31.8743 54.3832 31.8451 54.5483 31.8431 54.734C31.8472 55.0209 31.9139 55.252 32.0451 55.4254C32.1763 55.5987 32.3721 55.6875 32.6324 55.6875C32.7969 55.6875 32.9365 55.6483 33.0531 55.574C33.1677 55.4997 33.2572 55.3903 33.3155 55.2458L33.6488 55.3449C33.5592 55.5575 33.4259 55.7205 33.2531 55.8319C33.0802 55.9434 32.874 55.9991 32.6324 55.9991Z" fill="white"/>
<path d="M34.7068 55.9331V53.8363H33.8467V53.535H35.894V53.8363H35.0359V55.9331H34.7068Z" fill="white"/>
<path d="M38.2429 53.535V55.9331H37.9222V54.0654L36.5955 55.9331H36.3164V53.535H36.6371V55.3862L37.9659 53.535H38.2429Z" fill="white"/>
<path d="M38.8682 55.9331V53.535H39.1972V54.5751H40.5614V53.535H40.8926V55.9331H40.5614V54.8888H39.1972V55.9331H38.8682Z" fill="white"/>
<path d="M41.5176 55.9331V53.535H41.8466V54.5751H43.2108V53.535H43.542V55.9331H43.2108V54.8888H41.8466V55.9331H41.5176Z" fill="white"/>
<path d="M45.1787 55.9991C44.9392 55.9991 44.733 55.9455 44.5622 55.8381C44.3935 55.7288 44.2623 55.5802 44.1707 55.3882C44.079 55.1984 44.0332 54.9796 44.0332 54.732C44.0332 54.4802 44.0811 54.2594 44.1727 54.0695C44.2665 53.8796 44.3977 53.7331 44.5685 53.6258C44.7392 53.5205 44.9434 53.4669 45.1787 53.4669C45.4224 53.4669 45.6286 53.5205 45.7994 53.6279C45.9701 53.7372 46.1013 53.8858 46.1909 54.0757C46.2825 54.2656 46.3263 54.4843 46.3263 54.732C46.3263 54.9837 46.2805 55.2046 46.1909 55.3944C46.0993 55.5843 45.9681 55.7329 45.7952 55.8402C45.6244 55.9455 45.4182 55.9991 45.1787 55.9991ZM45.1787 55.6875C45.4495 55.6875 45.6494 55.5987 45.7806 55.4213C45.9118 55.2438 45.9785 55.0147 45.9785 54.732C45.9785 54.441 45.9118 54.2098 45.7785 54.0385C45.6473 53.8673 45.4474 53.7806 45.1787 53.7806C44.9996 53.7806 44.8496 53.8219 44.733 53.9023C44.6143 53.9828 44.5268 54.0943 44.4706 54.2367C44.4123 54.3811 44.3831 54.5442 44.3831 54.732C44.3831 55.0209 44.4518 55.252 44.5851 55.4254C44.7205 55.5987 44.9184 55.6875 45.1787 55.6875Z" fill="white"/>
<path d="M46.8203 55.9331V53.535H48.4782V53.8466H47.1494V55.9331H46.8203Z" fill="white"/>
<path d="M49.8711 55.9991C49.6295 55.9991 49.4254 55.9455 49.2546 55.8381C49.0838 55.7288 48.9526 55.5802 48.863 55.3882C48.7714 55.1984 48.7256 54.9796 48.7256 54.732C48.7256 54.4802 48.7714 54.2594 48.8651 54.0695C48.9568 53.8796 49.088 53.7331 49.2608 53.6258C49.4316 53.5205 49.6337 53.4669 49.8711 53.4669C50.1127 53.4669 50.3189 53.5205 50.4897 53.6279C50.6604 53.7372 50.7916 53.8858 50.8833 54.0757C50.9728 54.2656 51.0187 54.4843 51.0187 54.732C51.0187 54.9837 50.9728 55.2046 50.8812 55.3944C50.7896 55.5843 50.6584 55.7329 50.4876 55.8402C50.3147 55.9455 50.1106 55.9991 49.8711 55.9991ZM49.8711 55.6875C50.1398 55.6875 50.3397 55.5987 50.4709 55.4213C50.6021 55.2438 50.6688 55.0147 50.6688 54.732C50.6688 54.441 50.6021 54.2098 50.4709 54.0385C50.3376 53.8673 50.1377 53.7806 49.8711 53.7806C49.6899 53.7806 49.5399 53.8219 49.4233 53.9023C49.3067 53.9828 49.2192 54.0943 49.1609 54.2367C49.1046 54.3811 49.0755 54.5442 49.0755 54.732C49.0755 55.0209 49.1421 55.252 49.2775 55.4254C49.4108 55.5987 49.6087 55.6875 49.8711 55.6875Z" fill="white"/>
<path d="M52.4062 55.9331L52.4083 53.535H52.7395V54.6886L53.8204 53.535H54.2599L53.1248 54.734L54.4077 55.9331H53.9287L52.7395 54.7774V55.9331H52.4062Z" fill="white"/>
<path d="M55.3239 55.9991C55.1406 55.9991 54.9886 55.9682 54.8657 55.9021C54.7428 55.8361 54.6491 55.7494 54.5887 55.6421C54.5283 55.5348 54.4971 55.4171 54.4971 55.2892C54.4971 55.1592 54.5241 55.0477 54.5762 54.9549C54.6304 54.862 54.7012 54.7856 54.7949 54.7278C54.8865 54.668 54.9928 54.6226 55.1136 54.5916C55.2364 54.5627 55.3718 54.5359 55.5197 54.5132C55.6696 54.4905 55.8154 54.4699 55.9571 54.4534C56.1008 54.4369 56.2257 54.4183 56.3319 54.4038L56.2153 54.474C56.2216 54.2367 56.1737 54.0612 56.0779 53.9477C55.98 53.8342 55.8113 53.7765 55.5697 53.7765C55.4051 53.7765 55.2635 53.8136 55.151 53.8879C55.0365 53.9622 54.9553 54.0778 54.9094 54.2387L54.5887 54.1459C54.6449 53.9312 54.7553 53.7641 54.9219 53.6464C55.0906 53.5267 55.3073 53.4669 55.5759 53.4669C55.7967 53.4669 55.9841 53.5082 56.1383 53.5907C56.2924 53.6733 56.4028 53.793 56.4673 53.9477C56.4965 54.0179 56.5173 54.0943 56.5256 54.1809C56.534 54.2676 56.5381 54.3543 56.5381 54.443V55.9331H56.2445V55.3305L56.3299 55.3676C56.2486 55.5719 56.1195 55.7288 55.9466 55.8381C55.7738 55.9455 55.5655 55.9991 55.3239 55.9991ZM55.3614 55.7184C55.5155 55.7184 55.6509 55.6895 55.7654 55.6359C55.88 55.5802 55.9737 55.5059 56.0424 55.4109C56.1133 55.3139 56.1591 55.2066 56.1799 55.0869C56.1987 55.0106 56.207 54.926 56.2091 54.8331C56.2112 54.7402 56.2111 54.6701 56.2111 54.6247L56.3361 54.6886C56.2257 54.7051 56.1028 54.7196 55.9737 54.734C55.8425 54.7485 55.7134 54.765 55.5863 54.7856C55.4614 54.8042 55.3468 54.8269 55.2448 54.8537C55.176 54.8723 55.1094 54.8991 55.0469 54.9342C54.9823 54.9693 54.9282 55.0168 54.8886 55.0746C54.847 55.1323 54.8261 55.2025 54.8261 55.2892C54.8261 55.3593 54.8449 55.4254 54.8782 55.4914C54.9136 55.5554 54.9719 55.6111 55.049 55.6524C55.1281 55.6957 55.2323 55.7184 55.3614 55.7184Z" fill="white"/>
<path d="M58.6014 55.9331V55.0395C58.5223 55.0808 58.4223 55.1158 58.3036 55.1447C58.187 55.1736 58.0599 55.1901 57.9224 55.1901C57.6788 55.1901 57.4788 55.1344 57.3268 55.0271C57.1747 54.9198 57.0748 54.7629 57.029 54.5586C57.0144 54.4967 57.004 54.4327 56.9977 54.3646C56.9936 54.2965 56.9894 54.2346 56.9894 54.181C56.9873 54.1252 56.9873 54.086 56.9873 54.0633V53.535H57.3185V54.0633C57.3185 54.1129 57.3205 54.1665 57.3226 54.2305C57.3247 54.2924 57.333 54.3522 57.3434 54.4121C57.3726 54.5731 57.4393 54.6948 57.5455 54.7774C57.6517 54.862 57.7996 54.9033 57.9912 54.9033C58.1099 54.9033 58.2224 54.8868 58.3307 54.8579C58.4369 54.8269 58.5285 54.7856 58.6014 54.734V53.535H58.9326V55.9331H58.6014Z" fill="white"/>
<path d="M60.5849 55.9991C60.3474 55.9991 60.1433 55.9475 59.9705 55.8443C59.7997 55.7411 59.6643 55.5946 59.5685 55.4068C59.4727 55.219 59.4248 54.9982 59.4248 54.7444C59.4248 54.4823 59.4727 54.2573 59.5664 54.0654C59.6602 53.8734 59.7934 53.7269 59.9642 53.6237C60.135 53.5205 60.337 53.4669 60.5703 53.4669C60.8098 53.4669 61.0139 53.5226 61.1826 53.632C61.3513 53.7393 61.4805 53.8961 61.5658 54.0984C61.6533 54.3006 61.6929 54.5442 61.6846 54.8248H61.3492V54.7093C61.343 54.3976 61.2743 54.1644 61.1451 54.0055C61.016 53.8466 60.8286 53.7682 60.5807 53.7682C60.3204 53.7682 60.1204 53.8507 59.983 54.0179C59.8434 54.1851 59.7747 54.4245 59.7747 54.734C59.7747 55.0353 59.8434 55.2706 59.983 55.4357C60.1204 55.6029 60.3162 55.6875 60.5703 55.6875C60.7432 55.6875 60.8952 55.6462 61.0243 55.5678C61.1535 55.4894 61.2555 55.3738 61.3305 55.2252L61.6387 55.3428C61.5429 55.5513 61.4013 55.7123 61.2159 55.8278C61.0285 55.9413 60.8181 55.9991 60.5849 55.9991ZM59.6581 54.8248V54.5524H61.5075V54.8248H59.6581Z" fill="white"/>
<path d="M63.1842 55.9991C62.9405 55.9991 62.7343 55.9455 62.5656 55.8381C62.3969 55.7288 62.2678 55.5802 62.1803 55.3903C62.0928 55.2004 62.0491 54.9817 62.0449 54.734C62.0491 54.4823 62.0949 54.2614 62.1845 54.0716C62.274 53.8796 62.4031 53.7331 62.5719 53.6258C62.7406 53.5205 62.9467 53.4669 63.1863 53.4669C63.432 53.4669 63.6444 53.5267 63.8256 53.6464C64.0089 53.7641 64.1318 53.9271 64.2005 54.1314L63.8777 54.2346C63.8194 54.0901 63.7298 53.9787 63.607 53.9003C63.4841 53.8198 63.3425 53.7806 63.1842 53.7806C63.0071 53.7806 62.8593 53.8219 62.7426 53.9023C62.626 53.9828 62.5385 54.0943 62.4823 54.2387C62.4261 54.3832 62.3969 54.5483 62.3948 54.734C62.399 55.0209 62.4656 55.252 62.5968 55.4254C62.7281 55.5987 62.9238 55.6875 63.1842 55.6875C63.3487 55.6875 63.4882 55.6483 63.6049 55.574C63.7194 55.4997 63.809 55.3903 63.8673 55.2458L64.2005 55.3449C64.111 55.5575 63.9777 55.7205 63.8048 55.8319C63.632 55.9434 63.4258 55.9991 63.1842 55.9991Z" fill="white"/>
<path d="M65.2586 55.9331V53.8363H64.3984V53.535H66.4458V53.8363H65.5877V55.9331H65.2586Z" fill="white"/>
<path d="M66.8682 55.9331V53.535H67.8658C67.9179 53.535 67.9783 53.5371 68.0511 53.5433C68.124 53.5495 68.1907 53.5598 68.2532 53.5763C68.3906 53.6114 68.4989 53.6857 68.5822 53.795C68.6655 53.9044 68.7072 54.0365 68.7072 54.1892C68.7072 54.2759 68.6926 54.3522 68.6676 54.4204C68.6406 54.4864 68.6052 54.5442 68.5572 54.5937C68.5343 54.6185 68.5093 54.6412 68.4823 54.6597C68.4552 54.6783 68.4302 54.6928 68.4031 54.7052C68.451 54.7134 68.5031 54.734 68.5593 54.7671C68.6447 54.8166 68.7114 54.8847 68.7551 54.9693C68.8009 55.056 68.8238 55.1592 68.8238 55.2809C68.8238 55.444 68.7843 55.5781 68.7051 55.6813C68.626 55.7866 68.5198 55.8567 68.3865 55.8959C68.3261 55.9124 68.2615 55.9228 68.1928 55.9269C68.122 55.931 68.0574 55.9331 67.997 55.9331H66.8682ZM67.2014 54.5937H67.8783C67.9158 54.5937 67.9595 54.5916 68.0074 54.5855C68.0574 54.5813 68.0991 54.571 68.1345 54.5586C68.2136 54.5318 68.2698 54.4864 68.3073 54.4204C68.3427 54.3564 68.3615 54.2841 68.3615 54.2078C68.3615 54.1232 68.3427 54.0489 68.3011 53.9849C68.2615 53.9209 68.2032 53.8776 68.124 53.8528C68.0699 53.8322 68.0116 53.8219 67.9512 53.8198C67.8887 53.8157 67.8491 53.8136 67.8325 53.8136H67.2014V54.5937ZM67.2014 55.6545H67.9803C68.0116 55.6545 68.0512 55.6524 68.0991 55.6483C68.147 55.6421 68.1907 55.6359 68.2261 55.6276C68.3157 55.6049 68.3802 55.5595 68.4219 55.4914C68.4614 55.4254 68.4823 55.3511 68.4823 55.2706C68.4823 55.1654 68.451 55.0808 68.3885 55.0126C68.3281 54.9445 68.2448 54.9033 68.1428 54.8888C68.1074 54.8826 68.072 54.8785 68.0345 54.8764C67.997 54.8744 67.9637 54.8744 67.9324 54.8744H67.2014V55.6545Z" fill="white"/>
<path d="M69.9636 55.9991C69.7824 55.9991 69.6303 55.9682 69.5054 55.9021C69.3825 55.8361 69.2908 55.7494 69.2304 55.6421C69.168 55.5348 69.1367 55.4171 69.1367 55.2892C69.1367 55.1592 69.1638 55.0477 69.2179 54.9549C69.27 54.862 69.3429 54.7856 69.4346 54.7278C69.5262 54.668 69.6324 54.6226 69.7532 54.5916C69.8761 54.5627 70.0115 54.5359 70.1614 54.5132C70.3093 54.4905 70.4551 54.4699 70.5988 54.4534C70.7404 54.4369 70.8654 54.4183 70.9737 54.4038L70.857 54.474C70.8612 54.2367 70.8154 54.0612 70.7175 53.9477C70.6196 53.8342 70.4509 53.7765 70.2114 53.7765C70.0448 53.7765 69.9052 53.8136 69.7907 53.8879C69.6761 53.9622 69.597 54.0778 69.5491 54.2387L69.2304 54.1459C69.2846 53.9312 69.395 53.7641 69.5637 53.6464C69.7303 53.5267 69.949 53.4669 70.2156 53.4669C70.4363 53.4669 70.6238 53.5082 70.78 53.5907C70.9341 53.6733 71.0424 53.793 71.107 53.9477C71.1382 54.0179 71.157 54.0943 71.1653 54.1809C71.1757 54.2676 71.1799 54.3543 71.1799 54.443V55.9331H70.8862V55.3305L70.9716 55.3676C70.8883 55.5719 70.7612 55.7288 70.5884 55.8381C70.4134 55.9455 70.2072 55.9991 69.9636 55.9991ZM70.0031 55.7184C70.1573 55.7184 70.2905 55.6895 70.4072 55.6359C70.5217 55.5802 70.6134 55.5059 70.6842 55.4109C70.755 55.3139 70.8008 55.2066 70.8216 55.0869C70.8383 55.0106 70.8487 54.926 70.8508 54.8331C70.8508 54.7402 70.8529 54.6701 70.8529 54.6247L70.9778 54.6886C70.8654 54.7051 70.7446 54.7196 70.6134 54.734C70.4822 54.7485 70.3551 54.765 70.2281 54.7856C70.101 54.8042 69.9886 54.8269 69.8865 54.8537C69.8178 54.8723 69.7511 54.8991 69.6866 54.9342C69.622 54.9693 69.5699 55.0168 69.5283 55.0746C69.4866 55.1323 69.4679 55.2025 69.4679 55.2892C69.4679 55.3593 69.4845 55.4254 69.5199 55.4914C69.5553 55.5554 69.6116 55.6111 69.6907 55.6524C69.7678 55.6957 69.8719 55.7184 70.0031 55.7184Z" fill="white"/>
</g>
<defs>
<clipPath id="clip0_95_625">
<rect width="71" height="25" fill="white" transform="translate(9 31)"/>
</clipPath>
</defs>
</svg>
