<svg width="169" height="60" viewBox="0 0 169 60" fill="none" xmlns="http://www.w3.org/2000/svg">
<g clip-path="url(#clip0_18_966)">
<path d="M20.1241 7.38672L19.7823 11.681L23.1503 13.053C23.5416 13.1817 23.7348 13.4591 23.7348 13.8801C23.7348 14.0782 23.6902 14.3061 23.5912 14.5636L17.7763 31.4137L11.2829 12.9044L14.75 12.0227L14.2597 7.38672H0.193167L0 10.8043L1.60973 13.0975L12.9372 39.9428L20.3668 40.453L31.0157 14.2714L33.1653 11.5373L32.8681 7.38672H20.1241Z" fill="white"/>
<path d="M44.983 17.5948C44.7205 16.3219 44.4431 15.2669 44.1509 14.4199C42.2638 14.4843 39.3465 14.9251 35.4088 15.7374C35.0175 15.7721 34.547 15.8513 33.9923 15.9801L33.8486 19.6453L35.9933 20.8142C36.4192 21.0768 36.6818 21.3145 36.7759 21.5225C36.8749 21.7355 36.9245 22.2011 36.9245 22.9143V34.7867L33.9427 35.6634L34.1904 40.3043H48.8414L49.0345 36.8372L46.1073 35.2721C45.6814 35.0145 45.4238 34.7669 45.3247 34.539C45.2257 34.3112 45.1762 33.8555 45.1762 33.172V22.0872C46.6422 21.9237 48.0588 21.8395 49.4258 21.8395C49.9806 21.8395 50.8424 21.8742 52.0163 21.9386C52.2094 21.0619 52.3729 19.8979 52.5017 18.4467C52.6354 17.0004 52.7146 15.6532 52.7493 14.4199H49.9657C48.5987 15.0044 46.9345 16.0643 44.983 17.5948Z" fill="white"/>
<path d="M77.2916 34.4451C77.1777 34.2172 77.1182 33.8061 77.1182 33.2217V23.0135C77.1182 19.8882 76.3703 17.6494 74.8745 16.2973C73.3737 14.95 70.9022 14.2715 67.45 14.2715C65.5629 14.2715 63.5321 14.4498 61.3677 14.8114C59.2032 15.168 57.2071 15.6534 55.3844 16.2725C55.6123 19.0759 56.0036 21.7753 56.5583 24.3806L60.174 24.6282L62.175 20.6708C62.7297 20.5717 63.6708 20.5222 65.0081 20.5222C66.3108 20.5222 67.2766 20.6609 67.9155 20.9382C68.5495 21.2156 68.9903 21.7208 69.233 22.4538C69.4757 23.1869 69.5996 24.3162 69.5996 25.8467C64.6466 26.0448 60.8823 26.8719 58.2918 28.338C55.7014 29.8041 54.4087 31.8249 54.4087 34.3955C54.4087 36.3173 55.0773 37.8874 56.4097 39.1059C57.747 40.3292 59.5202 40.9385 61.7342 40.9385C63.1012 40.9385 64.5425 40.6958 66.0582 40.2054C67.5738 39.72 68.9656 39.0662 70.2335 38.2539C70.3326 38.7096 70.4465 39.1901 70.5753 39.6953C70.7041 40.2005 70.8031 40.5472 70.8675 40.7453C73.0518 40.6462 76.0286 40.1559 79.8077 39.2792L80.0009 36.248L78.0494 35.1286C77.6581 34.9008 77.4055 34.6729 77.2916 34.4451ZM65.0081 35.4208C64.0621 35.4208 63.3241 35.1534 62.7842 34.6135C62.2493 34.0786 61.9769 33.3207 61.9769 32.345C61.9769 31.9834 62.0264 31.5921 62.1255 31.1711C62.809 30.9433 63.7352 30.7402 64.9091 30.5619C66.0829 30.3836 67.1082 30.2895 67.9849 30.2895C68.2474 30.2895 68.7675 30.3242 69.55 30.3886L69.7432 34.1033C67.8908 34.98 66.3108 35.4208 65.0081 35.4208Z" fill="white"/>
<path d="M93.4833 34.539C93.3842 34.3112 93.3347 33.8555 93.3347 33.172V17.5453C93.2356 16.8618 92.978 15.8167 92.5521 14.4199C91.3138 14.4496 89.9567 14.5883 88.4758 14.831C86.9948 15.0787 84.8997 15.4601 82.2003 15.9801L81.9527 19.6453L84.1023 20.8142C84.5579 21.0768 84.8452 21.3145 84.9591 21.5225C85.0731 21.7355 85.1275 22.2011 85.1275 22.9143V34.7867L81.71 35.8119L81.8586 40.3043H96.5095L96.7027 36.6391L94.3104 35.2721C93.8547 35.0145 93.5774 34.7669 93.4833 34.539Z" fill="white"/>
<path d="M140.858 34.5392C140.759 34.3113 140.71 33.8557 140.71 33.1722V23.5534C140.71 20.4281 140.076 18.1002 138.808 16.5697C137.535 15.0392 135.564 14.2715 132.894 14.2715C131.562 14.2715 130.15 14.4746 128.669 14.8807C127.188 15.2918 125.519 15.9506 123.666 16.8619C123.112 16.0793 122.28 15.4503 121.175 14.9798C120.066 14.5092 118.877 14.2715 117.609 14.2715C116.564 14.2715 115.42 14.4448 114.167 14.7866C112.908 15.1284 111.408 15.7029 109.649 16.5201C109.486 15.802 109.273 15.1036 109.01 14.4201C107.089 14.4845 104.127 14.9253 100.125 15.7376L98.8023 15.9803L98.6587 19.6455L100.808 20.8144C101.229 21.0769 101.492 21.3147 101.586 21.5227C101.685 21.7357 101.735 22.2012 101.735 22.9145V34.7868L98.7082 35.6635L98.9509 40.3045H113.017L113.211 36.6393L110.818 35.2722C110.397 35.0147 110.135 34.767 110.036 34.5392C109.942 34.3113 109.892 33.8557 109.892 33.1722V21.2552C111.517 20.963 112.904 20.8144 114.043 20.8144C115.083 20.8144 115.831 20.9779 116.291 21.3048C116.747 21.6316 117.015 22.0972 117.094 22.6965C117.178 23.3008 117.218 24.3162 117.218 25.7476V34.98L114.875 35.6635L115.118 40.3045H128.501L128.694 36.6393L126.301 35.2722C125.811 35.0147 125.519 34.767 125.425 34.5392C125.326 34.3113 125.276 33.8557 125.276 33.1722V23.5534C125.276 22.543 125.241 21.7753 125.177 21.2552C127.163 20.963 128.58 20.8144 129.427 20.8144C130.502 20.8144 131.269 20.9878 131.725 21.3295C132.181 21.6713 132.448 22.1418 132.527 22.7461C132.612 23.3503 132.651 24.3508 132.651 25.7476V34.98L130.308 35.6635L130.551 40.3045H143.835L144.033 36.6393L141.685 35.2722C141.23 35.0147 140.952 34.767 140.858 34.5392Z" fill="white"/>
<path d="M166.035 17.7881C164.063 15.4453 161.24 14.2715 157.56 14.2715C155.084 14.2715 152.919 14.8114 151.062 15.8812C149.209 16.956 147.773 18.5113 146.768 20.5469C145.757 22.5826 145.252 25.0146 145.252 27.8477C145.252 31.919 146.287 35.1088 148.353 37.4218C150.423 39.7349 153.36 40.8889 157.169 40.8889C159.125 40.8889 161.062 40.5967 162.984 40.0122C164.901 39.4228 166.466 38.6749 167.669 37.7636L166.545 32.9295C165.213 33.4198 163.895 33.8012 162.592 34.0786C161.29 34.3559 160.165 34.4946 159.219 34.4946C157.852 34.4946 156.753 34.1727 155.926 33.5387C155.094 32.9047 154.45 31.9042 153.994 30.5372L168.843 27.8031C168.942 23.4692 168.006 20.1309 166.035 17.7881ZM153.509 25.703C153.439 23.8456 153.751 22.117 154.435 20.5222C155.282 20.2646 156.173 20.1309 157.119 20.1309C158.259 20.1309 159.145 20.4182 159.784 20.9878C160.418 21.5574 160.765 22.4588 160.834 23.6971L153.509 25.703Z" fill="white"/>
<path d="M83.572 6.67858C85.9644 7.53049 86.8163 8.43194 87.5246 10.8738C87.6533 11.3146 88.0496 11.6217 88.5102 11.6365C88.5201 11.6365 88.53 11.6365 88.5449 11.6365C88.9906 11.6365 89.3918 11.3592 89.5404 10.9332C90.3923 8.53595 91.2938 7.68899 93.7356 6.98071C94.1814 6.85193 94.4885 6.45569 94.4984 5.99506C94.5132 5.52948 94.2309 5.11838 93.7951 4.95988C91.4027 4.11292 90.5508 3.20652 89.8426 0.769641C89.7138 0.323871 89.3175 0.0167846 88.8569 0.00192561C88.3963 -0.0178864 87.9802 0.274341 87.8267 0.705252C86.9748 3.10251 86.0733 3.94947 83.6315 4.65775C83.1907 4.78653 82.8836 5.18277 82.8687 5.6434C82.8539 6.10898 83.1362 6.52008 83.572 6.67858Z" fill="white"/>
<path d="M24.2054 59.9976C23.6804 59.9976 23.2297 59.9233 22.8483 59.7697C22.4669 59.6162 22.1549 59.4131 21.9072 59.1655C21.6645 58.9129 21.4812 58.6454 21.3574 58.3532L22.0756 57.9371C22.1598 58.1798 22.2935 58.3977 22.4768 58.5959C22.665 58.794 22.9028 58.9525 23.195 59.0714C23.4823 59.1902 23.829 59.2497 24.2302 59.2497C24.6462 59.2497 24.9979 59.1803 25.2901 59.0515C25.5774 58.9178 25.8003 58.7346 25.9489 58.4968C26.0974 58.2591 26.1717 57.9817 26.1717 57.6647C26.1717 57.318 26.0875 57.0456 25.9191 56.8524C25.7557 56.6642 25.5328 56.5255 25.2505 56.4463C24.9682 56.367 24.6561 56.3224 24.3094 56.3125C24.0519 56.2977 23.8686 56.2927 23.7596 56.2878C23.6457 56.2878 23.5764 56.2828 23.5367 56.2828C23.5021 56.2828 23.4674 56.2828 23.4377 56.2828V55.525C23.4624 55.525 23.5268 55.525 23.6358 55.525C23.7398 55.525 23.8537 55.525 23.9776 55.525C24.0964 55.525 24.1905 55.5201 24.2648 55.5151C24.77 55.4903 25.1712 55.3566 25.4635 55.1189C25.7557 54.8762 25.8993 54.5493 25.8993 54.1382C25.8993 53.6973 25.7458 53.3605 25.4387 53.1178C25.1316 52.8751 24.7354 52.7563 24.25 52.7563C23.7893 52.7563 23.403 52.8652 23.091 53.0832C22.774 53.3011 22.5164 53.5933 22.3183 53.9599L21.6794 53.4844C21.9221 53.0535 22.2638 52.6968 22.7046 52.4195C23.1405 52.1421 23.6655 52.0034 24.2698 52.0034C24.5917 52.0034 24.9038 52.048 25.201 52.1372C25.4981 52.2263 25.7606 52.3551 25.9885 52.5334C26.2163 52.7067 26.3996 52.9247 26.5333 53.1921C26.667 53.4546 26.7314 53.7667 26.7314 54.1184C26.7314 54.5344 26.6423 54.896 26.459 55.208C26.2758 55.5151 26.038 55.7479 25.7507 55.9064C26.142 56.0203 26.4491 56.2283 26.672 56.5255C26.8949 56.8177 27.0038 57.2041 27.0038 57.6796C27.0038 58.1501 26.8899 58.5562 26.6571 58.9079C26.4243 59.2546 26.1024 59.5221 25.6814 59.7152C25.2604 59.9035 24.7651 59.9976 24.2054 59.9976Z" fill="white"/>
<path d="M28.1035 59.8389V54.0835H28.8861V56.5798H32.1303V54.0835H32.9129V59.8389H32.1303V57.3327H28.8861V59.8389H28.1035Z" fill="white"/>
<path d="M36.0528 59.9977C35.6219 59.9977 35.2553 59.9235 34.9631 59.765C34.6709 59.6065 34.4529 59.3984 34.3044 59.1409C34.1607 58.8833 34.0864 58.601 34.0864 58.2939C34.0864 57.9819 34.1508 57.7144 34.2746 57.4915C34.4034 57.2686 34.5768 57.0854 34.7947 56.9467C35.0126 56.8031 35.2652 56.6941 35.5525 56.6198C35.8447 56.5505 36.1667 56.4861 36.5184 56.4316C36.875 56.3771 37.2217 56.3276 37.5585 56.2879C37.9002 56.2483 38.1974 56.2037 38.45 56.1691L38.1727 56.3375C38.1875 55.7679 38.0736 55.3469 37.8458 55.0745C37.613 54.802 37.2118 54.6634 36.6422 54.6634C36.2459 54.6634 35.9141 54.7525 35.6417 54.9308C35.3693 55.1091 35.1761 55.3865 35.0671 55.7728L34.3044 55.5499C34.4381 55.0348 34.7006 54.6336 35.1018 54.3513C35.498 54.064 36.0131 53.9204 36.6521 53.9204C37.1771 53.9204 37.6229 54.0195 37.9894 54.2176C38.3609 54.4157 38.6184 54.703 38.772 55.0745C38.8413 55.2429 38.8908 55.4261 38.9107 55.6341C38.9305 55.8422 38.9404 56.0502 38.9404 56.2632V59.8392H38.247V58.393L38.4451 58.4821C38.2519 58.9725 37.9498 59.3489 37.5337 59.6114C37.1226 59.869 36.6273 59.9977 36.0528 59.9977ZM36.1469 59.3241C36.5084 59.3241 36.8304 59.2548 37.1028 59.126C37.3752 58.9923 37.5981 58.814 37.7665 58.5861C37.93 58.3533 38.0389 58.0958 38.0885 57.8085C38.133 57.6253 38.1578 57.4222 38.1578 57.1993C38.1627 56.9764 38.1628 56.808 38.1628 56.699L38.4649 56.8526C38.1974 56.8922 37.9101 56.9269 37.5981 56.9616C37.2861 56.9962 36.979 57.0359 36.6818 57.0854C36.3797 57.13 36.1073 57.1844 35.8695 57.2488C35.7061 57.2934 35.5476 57.3578 35.394 57.442C35.2405 57.5262 35.1166 57.6401 35.0176 57.7788C34.9185 57.9175 34.869 58.0859 34.869 58.2939C34.869 58.4623 34.9136 58.6208 34.9978 58.7793C35.077 58.9328 35.2157 59.0666 35.399 59.1656C35.5872 59.2697 35.8348 59.3241 36.1469 59.3241Z" fill="white"/>
<path d="M40.3223 59.8389L40.3272 54.0835H41.1197V56.8522L43.6854 54.0835H44.7304L42.036 56.9612L45.0821 59.8389H43.9429L41.1197 57.0652V59.8389H40.3223Z" fill="white"/>
<path d="M52.3237 54.0835V59.8389H51.561V55.3564L48.4059 59.8389H47.7422V54.0835H48.505V58.5263L51.665 54.0835H52.3237Z" fill="white"/>
<path d="M56.202 59.9977C55.6225 59.9977 55.1321 59.869 54.7309 59.6114C54.3297 59.3489 54.0226 58.9923 53.8146 58.5366C53.6066 58.0809 53.5026 57.5559 53.4927 56.9616C53.5026 56.3573 53.6115 55.8273 53.8245 55.3716C54.0375 54.911 54.3446 54.5593 54.7458 54.3018C55.147 54.0492 55.6373 53.9204 56.2069 53.9204C56.7914 53.9204 57.2966 54.064 57.7275 54.3513C58.1634 54.6336 58.4556 55.0249 58.619 55.5153L57.8513 55.7629C57.7126 55.4162 57.4997 55.1488 57.2074 54.9605C56.9152 54.7674 56.5784 54.6733 56.202 54.6733C55.781 54.6733 55.4293 54.7723 55.1519 54.9655C54.8746 55.1587 54.6665 55.4261 54.5328 55.7728C54.3991 56.1195 54.3297 56.5158 54.3248 56.9616C54.3347 57.65 54.4932 58.2048 54.8052 58.6208C55.1173 59.0369 55.5828 59.2498 56.202 59.2498C56.5933 59.2498 56.9251 59.1557 57.2025 58.9774C57.4749 58.7991 57.6879 58.5366 57.8266 58.1899L58.619 58.4276C58.4061 58.9378 58.0891 59.3291 57.678 59.5966C57.2669 59.864 56.7765 59.9977 56.202 59.9977Z" fill="white"/>
<path d="M61.1349 59.8389V54.8066H59.0894V54.0835H63.9582V54.8066H61.9175V59.8389H61.1349Z" fill="white"/>
<path d="M69.5454 54.0835V59.8389H68.7826V55.3564L65.6276 59.8389H64.9639V54.0835H65.7266V58.5263L68.8866 54.0835H69.5454Z" fill="white"/>
<path d="M71.0312 59.8389V54.0835H71.8138V56.5798H75.058V54.0835H75.8456V59.8389H75.058V57.3327H71.8138V59.8389H71.0312Z" fill="white"/>
<path d="M77.3315 59.8389V54.0835H78.1141V56.5798H81.3583V54.0835H82.1459V59.8389H81.3583V57.3327H78.1141V59.8389H77.3315Z" fill="white"/>
<path d="M86.0386 59.9977C85.469 59.9977 84.9787 59.869 84.5725 59.6114C84.1713 59.3489 83.8593 58.9923 83.6413 58.5317C83.4234 58.076 83.3145 57.551 83.3145 56.9566C83.3145 56.3523 83.4284 55.8224 83.6463 55.3667C83.8692 54.911 84.1812 54.5593 84.5874 54.3018C84.9935 54.0492 85.4789 53.9204 86.0386 53.9204C86.6181 53.9204 87.1085 54.0492 87.5146 54.3067C87.9207 54.5693 88.2328 54.9259 88.4458 55.3815C88.6637 55.8372 88.7677 56.3622 88.7677 56.9566C88.7677 57.5609 88.6587 58.0908 88.4458 58.5465C88.2278 59.0022 87.9158 59.3588 87.5047 59.6164C87.0985 59.869 86.6082 59.9977 86.0386 59.9977ZM86.0386 59.2498C86.6825 59.2498 87.158 59.0369 87.47 58.6109C87.7821 58.1849 87.9406 57.6352 87.9406 56.9566C87.9406 56.2582 87.7821 55.7035 87.4651 55.2924C87.153 54.8813 86.6775 54.6733 86.0386 54.6733C85.6126 54.6733 85.256 54.7723 84.9787 54.9655C84.6963 55.1587 84.4883 55.4261 84.3546 55.7679C84.2159 56.1146 84.1466 56.5059 84.1466 56.9566C84.1466 57.65 84.31 58.2048 84.627 58.6208C84.9489 59.0369 85.4195 59.2498 86.0386 59.2498Z" fill="white"/>
<path d="M89.9419 59.8389V54.0835H93.8845V54.8314H90.7245V59.8389H89.9419Z" fill="white"/>
<path d="M97.1978 59.9977C96.6232 59.9977 96.1378 59.869 95.7317 59.6114C95.3255 59.3489 95.0135 58.9923 94.8005 58.5317C94.5826 58.076 94.4736 57.551 94.4736 56.9566C94.4736 56.3523 94.5826 55.8224 94.8055 55.3667C95.0234 54.911 95.3355 54.5593 95.7466 54.3018C96.1527 54.0492 96.6331 53.9204 97.1978 53.9204C97.7723 53.9204 98.2627 54.0492 98.6688 54.3067C99.075 54.5693 99.387 54.9259 99.6049 55.3815C99.8179 55.8372 99.9269 56.3622 99.9269 56.9566C99.9269 57.5609 99.8179 58.0908 99.6 58.5465C99.3821 59.0022 99.07 59.3588 98.6639 59.6164C98.2528 59.869 97.7674 59.9977 97.1978 59.9977ZM97.1978 59.2498C97.8367 59.2498 98.3122 59.0369 98.6242 58.6109C98.9363 58.1849 99.0948 57.6352 99.0948 56.9566C99.0948 56.2582 98.9363 55.7035 98.6242 55.2924C98.3073 54.8813 97.8318 54.6733 97.1978 54.6733C96.7669 54.6733 96.4103 54.7723 96.1329 54.9655C95.8555 55.1587 95.6475 55.4261 95.5088 55.7679C95.3751 56.1146 95.3057 56.5059 95.3057 56.9566C95.3057 57.65 95.4642 58.2048 95.7862 58.6208C96.1032 59.0369 96.5737 59.2498 97.1978 59.2498Z" fill="white"/>
<path d="M103.226 59.8389L103.231 54.0835H104.018V56.8522L106.589 54.0835H107.634L104.934 56.9612L107.985 59.8389H106.846L104.018 57.0652V59.8389H103.226Z" fill="white"/>
<path d="M110.165 59.9977C109.729 59.9977 109.367 59.9235 109.075 59.765C108.783 59.6065 108.56 59.3984 108.416 59.1409C108.273 58.8833 108.198 58.601 108.198 58.2939C108.198 57.9819 108.263 57.7144 108.386 57.4915C108.515 57.2686 108.684 57.0854 108.907 56.9467C109.124 56.8031 109.377 56.6941 109.664 56.6198C109.957 56.5505 110.279 56.4861 110.63 56.4316C110.987 56.3771 111.333 56.3276 111.67 56.2879C112.012 56.2483 112.309 56.2037 112.562 56.1691L112.284 56.3375C112.299 55.7679 112.185 55.3469 111.958 55.0745C111.725 54.802 111.324 54.6634 110.749 54.6634C110.358 54.6634 110.021 54.7525 109.753 54.9308C109.481 55.1091 109.288 55.3865 109.179 55.7728L108.416 55.5499C108.55 55.0348 108.812 54.6336 109.209 54.3513C109.61 54.064 110.125 53.9204 110.764 53.9204C111.289 53.9204 111.735 54.0195 112.101 54.2176C112.468 54.4157 112.73 54.703 112.884 55.0745C112.953 55.2429 113.003 55.4261 113.022 55.6341C113.042 55.8422 113.052 56.0502 113.052 56.2632V59.8392H112.354V58.393L112.557 58.4821C112.364 58.9725 112.057 59.3489 111.646 59.6114C111.234 59.869 110.739 59.9977 110.165 59.9977ZM110.254 59.3241C110.62 59.3241 110.942 59.2548 111.215 59.126C111.487 58.9923 111.71 58.814 111.873 58.5861C112.042 58.3533 112.151 58.0958 112.2 57.8085C112.245 57.6253 112.265 57.4222 112.27 57.1993C112.275 56.9764 112.275 56.808 112.275 56.699L112.572 56.8526C112.309 56.8922 112.017 56.9269 111.71 56.9616C111.398 56.9962 111.091 57.0359 110.789 57.0854C110.491 57.13 110.219 57.1844 109.976 57.2488C109.813 57.2934 109.654 57.3578 109.506 57.442C109.352 57.5262 109.224 57.6401 109.129 57.7788C109.03 57.9175 108.981 58.0859 108.981 58.2939C108.981 58.4623 109.025 58.6208 109.105 58.7793C109.189 58.9328 109.328 59.0666 109.511 59.1656C109.699 59.2697 109.947 59.3241 110.254 59.3241Z" fill="white"/>
<path d="M117.961 59.8389V57.6942C117.772 57.7933 117.535 57.8775 117.252 57.9468C116.975 58.0162 116.673 58.0558 116.346 58.0558C115.766 58.0558 115.291 57.9221 114.929 57.6645C114.568 57.407 114.33 57.0305 114.221 56.5402C114.186 56.3916 114.162 56.2381 114.147 56.0746C114.137 55.9112 114.127 55.7626 114.127 55.6338C114.122 55.5001 114.122 55.4059 114.122 55.3515V54.0835H114.91V55.3515C114.91 55.4703 114.915 55.5991 114.92 55.7527C114.924 55.9012 114.944 56.0449 114.969 56.1885C115.038 56.5749 115.197 56.8671 115.449 57.0652C115.702 57.2683 116.054 57.3673 116.509 57.3673C116.792 57.3673 117.059 57.3277 117.317 57.2584C117.569 57.1841 117.787 57.085 117.961 56.9612V54.0835H118.748V59.8389H117.961Z" fill="white"/>
<path d="M122.676 59.9977C122.112 59.9977 121.626 59.8739 121.215 59.6263C120.809 59.3786 120.487 59.027 120.259 58.5762C120.031 58.1255 119.917 57.5955 119.917 56.9863C119.917 56.3573 120.031 55.8174 120.254 55.3568C120.477 54.8962 120.794 54.5445 121.2 54.2968C121.606 54.0492 122.087 53.9204 122.642 53.9204C123.211 53.9204 123.697 54.0541 124.098 54.3167C124.499 54.5742 124.806 54.9506 125.009 55.436C125.217 55.9214 125.311 56.5059 125.291 57.1795H124.494V56.9021C124.479 56.1542 124.316 55.5945 124.009 55.2131C123.702 54.8318 123.256 54.6435 122.666 54.6435C122.047 54.6435 121.572 54.8417 121.245 55.2429C120.913 55.6441 120.75 56.2186 120.75 56.9616C120.75 57.6847 120.913 58.2493 121.245 58.6456C121.572 59.0468 122.037 59.2498 122.642 59.2498C123.053 59.2498 123.414 59.1508 123.721 58.9626C124.028 58.7744 124.271 58.497 124.449 58.1404L125.183 58.4227C124.955 58.9229 124.618 59.3093 124.177 59.5866C123.731 59.8591 123.231 59.9977 122.676 59.9977ZM120.472 57.1795V56.5257H124.87V57.1795H120.472Z" fill="white"/>
<path d="M128.857 59.9977C128.278 59.9977 127.787 59.869 127.386 59.6114C126.985 59.3489 126.678 58.9923 126.47 58.5366C126.262 58.0809 126.158 57.5559 126.148 56.9616C126.158 56.3573 126.267 55.8273 126.48 55.3716C126.693 54.911 127 54.5593 127.401 54.3018C127.802 54.0492 128.293 53.9204 128.862 53.9204C129.447 53.9204 129.952 54.064 130.383 54.3513C130.819 54.6336 131.111 55.0249 131.274 55.5153L130.507 55.7629C130.368 55.4162 130.155 55.1488 129.863 54.9605C129.57 54.7674 129.234 54.6733 128.857 54.6733C128.436 54.6733 128.085 54.7723 127.807 54.9655C127.53 55.1587 127.322 55.4261 127.188 55.7728C127.054 56.1195 126.985 56.5158 126.98 56.9616C126.99 57.65 127.148 58.2048 127.46 58.6208C127.773 59.0369 128.238 59.2498 128.857 59.2498C129.249 59.2498 129.58 59.1557 129.858 58.9774C130.13 58.7991 130.343 58.5366 130.482 58.1899L131.274 58.4276C131.061 58.9378 130.744 59.3291 130.333 59.5966C129.922 59.864 129.432 59.9977 128.857 59.9977Z" fill="white"/>
<path d="M133.791 59.8389V54.8066H131.745V54.0835H136.614V54.8066H134.573V59.8389H133.791Z" fill="white"/>
<path d="M137.619 59.8389V54.0835H139.992C140.115 54.0835 140.259 54.0884 140.432 54.1033C140.606 54.1182 140.764 54.1429 140.913 54.1826C141.24 54.2668 141.497 54.4451 141.695 54.7076C141.894 54.9701 141.993 55.2871 141.993 55.6536C141.993 55.8616 141.958 56.0449 141.899 56.2083C141.834 56.3668 141.75 56.5055 141.636 56.6244C141.582 56.6838 141.522 56.7383 141.458 56.7829C141.393 56.8275 141.334 56.8621 141.27 56.8918C141.383 56.9117 141.507 56.9612 141.641 57.0404C141.844 57.1593 142.003 57.3228 142.107 57.5258C142.216 57.7339 142.27 57.9815 142.27 58.2737C142.27 58.665 142.176 58.987 141.988 59.2346C141.799 59.4872 141.547 59.6556 141.23 59.7497C141.086 59.7894 140.933 59.8141 140.769 59.824C140.601 59.8339 140.447 59.8389 140.304 59.8389H137.619ZM138.412 56.6244H140.021C140.111 56.6244 140.215 56.6194 140.328 56.6046C140.447 56.5947 140.546 56.5699 140.631 56.5402C140.819 56.4758 140.953 56.3668 141.042 56.2083C141.126 56.0548 141.17 55.8814 141.17 55.6982C141.17 55.4951 141.126 55.3168 141.027 55.1633C140.933 55.0097 140.794 54.9057 140.606 54.8463C140.477 54.7967 140.338 54.772 140.195 54.767C140.046 54.7571 139.952 54.7522 139.912 54.7522H138.412V56.6244ZM138.412 59.1702H140.264C140.338 59.1702 140.432 59.1653 140.546 59.1554C140.66 59.1405 140.764 59.1257 140.848 59.1058C141.061 59.0514 141.215 58.9424 141.314 58.7789C141.408 58.6204 141.458 58.4421 141.458 58.249C141.458 57.9964 141.383 57.7933 141.235 57.6298C141.091 57.4664 140.893 57.3673 140.65 57.3327C140.566 57.3178 140.482 57.3079 140.393 57.3029C140.304 57.298 140.224 57.298 140.15 57.298H138.412V59.1702Z" fill="white"/>
<path d="M144.98 59.9977C144.549 59.9977 144.187 59.9235 143.89 59.765C143.598 59.6065 143.38 59.3984 143.236 59.1409C143.087 58.8833 143.013 58.601 143.013 58.2939C143.013 57.9819 143.078 57.7144 143.206 57.4915C143.33 57.2686 143.504 57.0854 143.721 56.9467C143.939 56.8031 144.192 56.6941 144.479 56.6198C144.772 56.5505 145.093 56.4861 145.45 56.4316C145.802 56.3771 146.148 56.3276 146.49 56.2879C146.827 56.2483 147.124 56.2037 147.382 56.1691L147.104 56.3375C147.114 55.7679 147.005 55.3469 146.773 55.0745C146.54 54.802 146.139 54.6634 145.569 54.6634C145.173 54.6634 144.841 54.7525 144.568 54.9308C144.296 55.1091 144.108 55.3865 143.994 55.7728L143.236 55.5499C143.365 55.0348 143.627 54.6336 144.029 54.3513C144.425 54.064 144.945 53.9204 145.579 53.9204C146.104 53.9204 146.55 54.0195 146.921 54.2176C147.288 54.4157 147.545 54.703 147.699 55.0745C147.773 55.2429 147.818 55.4261 147.837 55.6341C147.862 55.8422 147.872 56.0502 147.872 56.2632V59.8392H147.174V58.393L147.377 58.4821C147.179 58.9725 146.877 59.3489 146.465 59.6114C146.049 59.869 145.559 59.9977 144.98 59.9977ZM145.074 59.3241C145.44 59.3241 145.757 59.2548 146.035 59.126C146.307 58.9923 146.525 58.814 146.693 58.5861C146.862 58.3533 146.971 58.0958 147.02 57.8085C147.06 57.6253 147.085 57.4222 147.09 57.1993C147.09 56.9764 147.094 56.808 147.094 56.699L147.392 56.8526C147.124 56.8922 146.837 56.9269 146.525 56.9616C146.213 56.9962 145.911 57.0359 145.609 57.0854C145.306 57.13 145.039 57.1844 144.796 57.2488C144.633 57.2934 144.474 57.3578 144.321 57.442C144.167 57.5262 144.043 57.6401 143.944 57.7788C143.845 57.9175 143.801 58.0859 143.801 58.2939C143.801 58.4623 143.84 58.6208 143.925 58.7793C144.009 58.9328 144.142 59.0666 144.331 59.1656C144.514 59.2697 144.762 59.3241 145.074 59.3241Z" fill="white"/>
</g>
<defs>
<clipPath id="clip0_18_966">
<rect width="168.848" height="60" fill="white"/>
</clipPath>
</defs>
</svg>
