<svg width="68" height="15" viewBox="0 0 68 15" fill="none" xmlns="http://www.w3.org/2000/svg">
<path d="M7.6118 14.4898C11.4821 14.4898 14.6196 11.3604 14.6196 7.50002C14.6196 3.63968 11.4821 0.510254 7.6118 0.510254C3.7415 0.510254 0.604004 3.63968 0.604004 7.50002C0.604004 11.3604 3.7415 14.4898 7.6118 14.4898Z" fill="#CE2457"/>
<path fill-rule="evenodd" clip-rule="evenodd" d="M7.26383 3.29297C5.09563 3.47011 3.38623 5.28583 3.38623 7.50011C3.38623 9.83249 5.28063 11.722 7.61903 11.722C9.95003 11.722 11.8444 9.83249 11.8444 7.50011C11.8444 5.28583 10.1424 3.47011 7.96683 3.29297L7.84843 6.06821C8.54403 6.17892 9.07683 6.77678 9.07683 7.50011C9.07683 8.30464 8.41823 8.95416 7.61903 8.95416C6.81243 8.95416 6.16123 8.30464 6.16123 7.50011C6.16123 6.77678 6.68663 6.17892 7.38223 6.06821L7.26383 3.29297Z" fill="white"/>
<path d="M7.61186 2.9976C8.11455 2.9976 8.52206 2.59114 8.52206 2.08974C8.52206 1.58835 8.11455 1.18188 7.61186 1.18188C7.10917 1.18188 6.70166 1.58835 6.70166 2.08974C6.70166 2.59114 7.10917 2.9976 7.61186 2.9976Z" fill="white"/>
<path fill-rule="evenodd" clip-rule="evenodd" d="M24.1658 7.49997C24.1658 8.45949 23.8106 9.24187 23.1446 9.86926C22.4786 10.4966 21.6572 10.7919 20.673 10.7919C19.6962 10.7919 18.9118 10.4966 18.2014 9.86926C17.5724 9.24187 17.2246 8.45949 17.2246 7.49997C17.2246 6.53306 17.5724 5.75806 18.2458 5.13068C18.9118 4.49592 19.7332 4.20068 20.673 4.20068C21.6202 4.20068 22.4786 4.49592 23.1446 5.13068C23.8106 5.75806 24.1658 6.53306 24.1658 7.49997ZM22.8708 7.49997C22.8708 6.9464 22.6784 6.45925 22.2418 6.09021C21.8496 5.72116 21.302 5.53664 20.673 5.53664C20.044 5.53664 19.5408 5.72116 19.1042 6.09021C18.675 6.45925 18.4752 6.9464 18.4752 7.49997C18.4752 8.05354 18.675 8.5333 19.1042 8.90235C19.4964 9.27878 20.044 9.4633 20.673 9.4633C21.302 9.4633 21.8496 9.27878 22.2418 8.90235C22.6784 8.5333 22.8708 8.05354 22.8708 7.49997Z" fill="black"/>
<path fill-rule="evenodd" clip-rule="evenodd" d="M28.3097 10.4968H26.8593V5.64747H24.6245V4.50342H30.5075V5.64747H28.3097V10.4968Z" fill="black"/>
<path fill-rule="evenodd" clip-rule="evenodd" d="M33.7562 10.6517C32.735 10.6517 31.9136 10.4967 31.2476 10.2014V9.02048C31.995 9.35262 32.7794 9.50024 33.5638 9.50024C34.1484 9.50024 34.585 9.42643 34.9328 9.27881C35.251 9.13119 35.4434 8.90976 35.4434 8.65143C35.4434 8.12738 34.9772 7.90595 33.993 7.90595H32.7794V6.83571H33.993C34.8144 6.83571 35.2066 6.61428 35.2066 6.16405C35.2066 5.68428 34.659 5.46286 33.6008 5.46286C32.8978 5.46286 32.1874 5.61047 31.44 5.90571V4.76167C32.1134 4.50333 32.9348 4.35571 33.9116 4.35571C34.696 4.35571 35.3694 4.50333 35.917 4.79857C36.4276 5.09381 36.7014 5.49976 36.7014 5.94262C36.7014 6.61428 36.3462 7.05714 35.6802 7.27857C36.5016 7.5369 36.9382 8.01667 36.9382 8.76214C36.9382 9.31571 36.6644 9.79548 36.0724 10.1276C35.4804 10.4967 34.696 10.6517 33.7562 10.6517Z" fill="black"/>
<path fill-rule="evenodd" clip-rule="evenodd" d="M44.8488 7.49997C44.8488 8.45949 44.501 9.24187 43.835 9.86926C43.1616 10.4966 42.3402 10.7919 41.3634 10.7919C40.3792 10.7919 39.5948 10.4966 38.8918 9.86926C38.2184 9.24187 37.8706 8.45949 37.8706 7.49997C37.8706 6.53306 38.2184 5.75806 38.8918 5.13068C39.5948 4.49592 40.4162 4.20068 41.4004 4.20068C42.3772 4.20068 43.206 4.49592 43.872 5.13068C44.501 5.75806 44.8488 6.53306 44.8488 7.49997ZM43.5982 7.49997C43.5982 6.9464 43.3984 6.45925 42.9692 6.09021C42.577 5.72116 42.0294 5.53664 41.4004 5.53664C40.7714 5.53664 40.2608 5.72116 39.8316 6.09021C39.395 6.45925 39.2026 6.9464 39.2026 7.49997C39.2026 8.05354 39.395 8.5333 39.8316 8.90235C40.2238 9.27878 40.7714 9.4633 41.4004 9.4633C42.0294 9.4633 42.577 9.27878 42.9692 8.90235C43.3614 8.5333 43.5982 8.05354 43.5982 7.49997Z" fill="black"/>
<path fill-rule="evenodd" clip-rule="evenodd" d="M49.9546 10.4968H46.1436V4.50342H49.7548C50.3838 4.50342 50.8944 4.65104 51.2866 4.90937C51.6788 5.1677 51.8342 5.57366 51.8342 6.01651C51.8342 6.31175 51.7602 6.57008 51.5974 6.79889C51.442 7.02032 51.2496 7.20485 50.9684 7.31556C51.8342 7.53699 52.2634 8.05366 52.2634 8.87294C52.2634 9.38961 52.071 9.79556 51.6418 10.0908C51.2496 10.3491 50.6946 10.4968 49.9546 10.4968ZM47.6014 5.57366V6.90961H49.3996C49.7178 6.90961 49.9546 6.8358 50.147 6.72508C50.3024 6.60699 50.4208 6.42247 50.4208 6.23794C50.4208 5.79508 50.11 5.57366 49.444 5.57366H47.6014ZM47.6014 7.94294V9.42651H49.6808C50.0286 9.42651 50.2654 9.3527 50.4652 9.24199C50.6576 9.09437 50.739 8.94675 50.739 8.68104C50.739 8.45961 50.6576 8.27508 50.4652 8.12747C50.2654 7.97985 49.9916 7.94294 49.6808 7.94294H47.6014Z" fill="black"/>
<path fill-rule="evenodd" clip-rule="evenodd" d="M54.972 10.4966H53.603V4.49585H55.0534V8.57014L58.6202 4.49585H59.9966V10.4966H58.5462V6.42228L54.972 10.4966Z" fill="black"/>
<path fill-rule="evenodd" clip-rule="evenodd" d="M62.9563 10.4966H61.5059V4.49585H62.9563V10.4966Z" fill="black"/>
<path fill-rule="evenodd" clip-rule="evenodd" d="M64.4884 7.38201L67.3966 10.4599H65.517L62.7568 7.45582L65.332 4.53296H67.1376L64.4884 7.38201Z" fill="black"/>
</svg>
